<svg xmlns="http://www.w3.org/2000/svg" viewBox="0 0 43 43" shape-rendering="crispEdges"><path fill="#ffffff" d="M0 0h43v43H0z"/><path stroke="#000000" d="M1 1.5h7m1 0h3m2 0h4m1 0h1m2 0h2m3 0h1m1 0h5m1 0h7M1 2.5h1m5 0h1m1 0h1m1 0h1m3 0h1m2 0h2m3 0h1m1 0h1m2 0h3m2 0h1m1 0h1m5 0h1M1 3.5h1m1 0h3m1 0h1m1 0h3m1 0h1m2 0h1m1 0h2m2 0h1m1 0h1m2 0h6m2 0h1m1 0h3m1 0h1M1 4.5h1m1 0h3m1 0h1m2 0h1m1 0h1m1 0h3m3 0h3m2 0h1m9 0h1m1 0h3m1 0h1M1 5.5h1m1 0h3m1 0h1m2 0h1m3 0h1m1 0h3m4 0h5m1 0h1m1 0h3m1 0h1m1 0h3m1 0h1M1 6.5h1m5 0h1m1 0h1m2 0h6m1 0h1m1 0h1m2 0h7m4 0h1m5 0h1M1 7.5h7m1 0h1m1 0h1m1 0h1m1 0h1m1 0h1m1 0h1m1 0h1m1 0h1m1 0h1m1 0h1m1 0h1m1 0h1m1 0h1m1 0h7M9 8.5h2m2 0h2m1 0h6m1 0h1m2 0h1m1 0h1m4 0h1M3 9.5h3m1 0h1m1 0h1m2 0h1m2 0h1m2 0h1m1 0h3m1 0h1m1 0h2m2 0h1m2 0h4m2 0h3M1 10.5h1m1 0h3m3 0h1m4 0h1m1 0h1m4 0h1m4 0h2m1 0h2m1 0h6m1 0h3M1 11.5h1m1 0h1m2 0h3m4 0h1m1 0h1m3 0h1m1 0h1m1 0h1m1 0h2m1 0h2m1 0h1m1 0h1m1 0h2M3 12.5h3m3 0h3m2 0h2m3 0h2m1 0h3m2 0h2m2 0h3m1 0h2m1 0h1m1 0h1M1 13.5h2m2 0h3m2 0h2m1 0h1m1 0h2m1 0h1m7 0h1m1 0h1m1 0h1m1 0h1m5 0h2m1 0h1M2 14.5h4m2 0h2m2 0h2m1 0h2m1 0h2m3 0h2m3 0h3m4 0h1m1 0h1m3 0h1M1 15.5h1m3 0h1m1 0h1m1 0h1m1 0h1m1 0h1m1 0h1m1 0h1m1 0h2m3 0h3m6 0h2m4 0h1M3 16.5h2m1 0h1m1 0h2m1 0h1m5 0h2m2 0h4m1 0h1m2 0h1m1 0h3m1 0h3m3 0h1M1 17.5h1m1 0h1m1 0h1m1 0h2m1 0h3m3 0h1m5 0h2m1 0h2m3 0h1m1 0h1m1 0h1m1 0h1m1 0h2m1 0h1M3 18.5h2m3 0h4m1 0h1m1 0h1m1 0h2m2 0h1m2 0h1m1 0h2m3 0h3m1 0h3m3 0h1M1 19.5h10m1 0h3m2 0h1m3 0h9m1 0h1m1 0h1m1 0h1m1 0h4M8 20.5h2m2 0h2m5 0h1m2 0h1m2 0h1m1 0h1m5 0h3m1 0h2m2 0h1M3 21.5h2m2 0h2m1 0h4m6 0h2m1 0h1m2 0h3m2 0h3m5 0h1M1 22.5h5m6 0h2m3 0h5m7 0h1m2 0h6m2 0h2M1 23.5h2m1 0h2m1 0h1m2 0h1m2 0h1m1 0h2m3 0h1m1 0h2m4 0h1m4 0h1m1 0h1m2 0h1M3 24.5h1m4 0h2m1 0h2m2 0h1m3 0h2m1 0h2m1 0h1m3 0h1m5 0h4m1 0h1M2 25.5h4m1 0h2m2 0h1m2 0h1m2 0h1m5 0h2m5 0h1m1 0h1m5 0h2M5 26.5h2m2 0h2m1 0h3m1 0h2m1 0h2m2 0h1m1 0h1m1 0h1m1 0h1m1 0h2m1 0h5m1 0h2M1 27.5h2m1 0h1m1 0h3m2 0h2m1 0h1m1 0h2m1 0h2m1 0h1m3 0h4m3 0h2m2 0h1M3 28.5h1m6 0h2m2 0h1m1 0h1m1 0h4m1 0h1m3 0h2m3 0h4m2 0h1m1 0h1M2 29.5h8m1 0h1m1 0h1m1 0h2m1 0h1m3 0h1m4 0h1m1 0h2m1 0h1m3 0h1m1 0h3M1 30.5h1m6 0h1m1 0h2m4 0h6m4 0h1m1 0h1m2 0h2m1 0h2m1 0h1m2 0h2M1 31.5h1m1 0h2m1 0h2m2 0h2m1 0h2m11 0h1m1 0h2m1 0h1m1 0h3m4 0h1M1 32.5h1m2 0h2m6 0h1m1 0h1m1 0h2m2 0h1m1 0h1m1 0h1m1 0h1m1 0h1m4 0h3m1 0h1m3 0h1M1 33.5h1m2 0h1m1 0h6m2 0h1m1 0h1m1 0h1m4 0h1m2 0h5m1 0h8m1 0h1M9 34.5h1m1 0h1m3 0h2m3 0h4m3 0h1m1 0h2m2 0h1m3 0h1m2 0h2M1 35.5h7m2 0h1m2 0h1m1 0h2m2 0h2m2 0h3m1 0h4m1 0h2m1 0h1m1 0h3M1 36.5h1m5 0h1m2 0h4m1 0h3m1 0h1m1 0h2m2 0h1m1 0h1m2 0h2m1 0h1m3 0h2m1 0h2M1 37.5h1m1 0h3m1 0h1m1 0h8m2 0h1m3 0h1m1 0h1m2 0h1m4 0h5m1 0h1m1 0h1M1 38.5h1m1 0h3m1 0h1m1 0h1m6 0h2m4 0h1m4 0h1m2 0h2m2 0h1m1 0h1m1 0h1m2 0h1M1 39.5h1m1 0h3m1 0h1m1 0h1m1 0h2m1 0h1m7 0h1m1 0h2m1 0h2m1 0h8m2 0h1M1 40.5h1m5 0h1m6 0h1m1 0h3m4 0h1m3 0h1m3 0h1m1 0h1m3 0h2m1 0h1M1 41.5h7m2 0h3m1 0h4m1 0h1m3 0h3m2 0h1m1 0h1m1 0h1m2 0h3m1 0h1"/></svg>
