<svg xmlns="http://www.w3.org/2000/svg" viewBox="0 0 55 55" shape-rendering="crispEdges"><path fill="#ffffff" d="M0 0h55v55H0z"/><path stroke="#000000" d="M1 1.5h7m1 0h3m1 0h1m1 0h2m1 0h4m2 0h1m2 0h2m1 0h2m1 0h4m6 0h1m3 0h7M1 2.5h1m5 0h1m1 0h3m1 0h1m2 0h1m2 0h1m3 0h1m2 0h1m1 0h1m3 0h1m2 0h10m2 0h1m5 0h1M1 3.5h1m1 0h3m1 0h1m1 0h1m1 0h2m1 0h1m1 0h1m3 0h1m1 0h1m1 0h2m1 0h1m3 0h1m1 0h2m1 0h2m2 0h2m2 0h1m2 0h1m1 0h3m1 0h1M1 4.5h1m1 0h3m1 0h1m3 0h2m1 0h2m1 0h1m2 0h1m1 0h2m1 0h1m1 0h2m2 0h1m3 0h1m1 0h1m4 0h2m1 0h1m1 0h1m1 0h3m1 0h1M1 5.5h1m1 0h3m1 0h1m9 0h2m1 0h2m2 0h6m6 0h3m1 0h1m1 0h2m3 0h1m1 0h3m1 0h1M1 6.5h1m5 0h1m1 0h1m1 0h2m1 0h2m1 0h3m1 0h3m1 0h1m3 0h1m4 0h2m1 0h1m1 0h2m2 0h1m3 0h1m5 0h1M1 7.5h7m1 0h1m1 0h1m1 0h1m1 0h1m1 0h1m1 0h1m1 0h1m1 0h1m1 0h1m1 0h1m1 0h1m1 0h1m1 0h1m1 0h1m1 0h1m1 0h1m1 0h1m1 0h1m1 0h1m1 0h7M9 8.5h5m1 0h1m1 0h2m1 0h1m4 0h1m3 0h1m2 0h2m1 0h1m3 0h1m1 0h1m1 0h1M3 9.5h3m1 0h1m1 0h1m3 0h1m2 0h5m1 0h1m2 0h7m1 0h2m2 0h2m1 0h1m1 0h7m2 0h3M1 10.5h1m1 0h2m1 0h1m4 0h4m4 0h1m4 0h3m1 0h1m5 0h1m3 0h1m2 0h3m5 0h1m3 0h1M1 11.5h2m1 0h1m1 0h2m1 0h2m2 0h1m2 0h1m3 0h3m1 0h2m1 0h4m2 0h1m1 0h1m1 0h1m1 0h1m1 0h1m2 0h2m1 0h4m1 0h1M1 12.5h1m2 0h1m4 0h3m4 0h1m2 0h1m1 0h1m2 0h1m2 0h1m2 0h3m3 0h1m1 0h2m3 0h1m3 0h1m2 0h1m1 0h2M2 13.5h7m2 0h1m3 0h1m1 0h1m4 0h1m3 0h7m2 0h3m1 0h2m1 0h2m2 0h4m1 0h2M3 14.5h1m4 0h1m1 0h1m3 0h3m2 0h1m7 0h1m2 0h1m1 0h1m1 0h1m1 0h1m1 0h1m4 0h3m1 0h3m2 0h2M2 15.5h1m1 0h1m2 0h2m2 0h2m1 0h1m2 0h3m2 0h1m2 0h1m1 0h4m2 0h2m1 0h1m2 0h2m1 0h1m2 0h2m2 0h1m1 0h2M4 16.5h1m1 0h1m1 0h1m1 0h2m1 0h1m2 0h1m1 0h5m2 0h1m3 0h1m1 0h1m3 0h1m4 0h3m1 0h2m4 0h1m1 0h1M1 17.5h1m4 0h7m1 0h1m2 0h2m1 0h1m3 0h1m1 0h2m1 0h1m2 0h2m1 0h5m2 0h2m1 0h2m1 0h2m1 0h2M1 18.5h1m1 0h2m1 0h1m8 0h2m1 0h1m5 0h1m3 0h3m4 0h1m2 0h1m1 0h5m5 0h4M1 19.5h2m3 0h4m3 0h1m1 0h1m2 0h2m1 0h1m1 0h3m4 0h1m1 0h1m2 0h2m2 0h1m1 0h1m5 0h2m2 0h1M4 20.5h1m5 0h3m3 0h2m2 0h1m1 0h2m1 0h2m3 0h1m2 0h1m1 0h1m1 0h5m1 0h2m1 0h1m1 0h1m1 0h1m1 0h2M1 21.5h1m3 0h1m1 0h1m1 0h1m1 0h1m1 0h7m3 0h4m1 0h1m1 0h3m2 0h2m2 0h2m4 0h1m3 0h3M2 22.5h2m2 0h1m1 0h4m2 0h1m1 0h1m2 0h2m1 0h4m3 0h1m5 0h1m2 0h3m1 0h3m1 0h1m1 0h1m1 0h1m1 0h1M1 23.5h1m1 0h2m1 0h2m1 0h1m2 0h2m1 0h1m2 0h1m1 0h1m2 0h2m6 0h1m1 0h2m1 0h1m3 0h2m5 0h3m2 0h1M10 24.5h2m1 0h1m3 0h2m1 0h2m1 0h1m1 0h4m1 0h2m1 0h2m5 0h2m2 0h1m1 0h1m3 0h1m2 0h1M1 25.5h1m3 0h6m3 0h1m2 0h3m1 0h1m3 0h5m3 0h1m2 0h4m2 0h2m1 0h7m1 0h1M2 26.5h1m1 0h2m3 0h3m1 0h2m1 0h2m1 0h2m3 0h2m3 0h1m2 0h2m1 0h3m4 0h4m3 0h5M1 27.5h1m1 0h3m1 0h1m1 0h3m1 0h1m2 0h1m1 0h1m1 0h1m2 0h3m1 0h1m1 0h2m1 0h1m1 0h1m1 0h4m5 0h1m1 0h1m1 0h1m1 0h1M1 28.5h1m2 0h2m3 0h2m6 0h1m2 0h3m2 0h1m3 0h2m3 0h1m6 0h1m1 0h1m1 0h1m3 0h3M1 29.5h2m2 0h6m1 0h1m1 0h3m2 0h1m3 0h1m1 0h6m2 0h2m1 0h3m1 0h1m1 0h2m1 0h5M4 30.5h1m1 0h1m1 0h1m1 0h2m1 0h1m1 0h1m2 0h2m1 0h1m3 0h2m3 0h3m4 0h1m2 0h1m2 0h1m3 0h3m1 0h3M3 31.5h2m1 0h2m3 0h1m1 0h8m2 0h5m1 0h1m4 0h3m1 0h2m2 0h2m1 0h2m2 0h1m2 0h1M1 32.5h5m2 0h2m1 0h4m1 0h1m2 0h1m1 0h1m1 0h3m1 0h3m1 0h5m5 0h1m2 0h1m2 0h4m2 0h1M3 33.5h1m3 0h2m1 0h1m3 0h5m6 0h1m1 0h1m4 0h2m2 0h3m1 0h1m4 0h2m1 0h1m1 0h2M2 34.5h1m1 0h1m3 0h2m4 0h1m2 0h1m1 0h1m7 0h2m3 0h1m1 0h1m1 0h2m5 0h1m1 0h1m3 0h3m1 0h1M4 35.5h8m3 0h1m1 0h3m1 0h1m3 0h3m1 0h3m1 0h1m1 0h1m2 0h3m4 0h1m4 0h1m1 0h1M2 36.5h3m1 0h1m1 0h1m1 0h2m2 0h4m2 0h2m1 0h2m4 0h1m4 0h2m5 0h1m1 0h2m1 0h5M1 37.5h1m1 0h2m1 0h2m1 0h1m2 0h1m3 0h2m1 0h1m4 0h1m1 0h1m2 0h3m2 0h4m1 0h2m1 0h1m2 0h2m1 0h1m2 0h1M2 38.5h1m5 0h3m3 0h1m2 0h5m1 0h2m1 0h1m1 0h4m2 0h1m5 0h1m2 0h1m1 0h1m2 0h3m2 0h1M1 39.5h5m1 0h1m2 0h1m1 0h1m1 0h2m1 0h1m4 0h1m2 0h2m6 0h2m1 0h1m2 0h4m6 0h1m1 0h2M2 40.5h1m1 0h2m2 0h1m2 0h2m2 0h2m1 0h1m1 0h2m2 0h1m2 0h1m3 0h1m2 0h1m1 0h1m2 0h3m1 0h3m1 0h3m2 0h1M1 41.5h1m2 0h1m1 0h2m1 0h1m3 0h1m4 0h2m1 0h2m2 0h1m2 0h1m3 0h4m1 0h1m1 0h2m1 0h2m1 0h1m1 0h6M2 42.5h4m2 0h3m1 0h1m2 0h2m1 0h1m1 0h1m2 0h1m1 0h1m2 0h1m3 0h1m2 0h2m1 0h1m2 0h4m1 0h2m1 0h1m2 0h2M1 43.5h2m1 0h4m1 0h1m1 0h1m2 0h1m1 0h1m1 0h1m1 0h1m1 0h1m1 0h1m3 0h1m2 0h4m1 0h2m1 0h1m1 0h1m3 0h1m2 0h3M2 44.5h2m5 0h1m2 0h1m1 0h1m2 0h4m6 0h1m1 0h2m1 0h2m2 0h1m3 0h1m2 0h5m1 0h1m2 0h1M4 45.5h1m2 0h2m4 0h3m1 0h1m5 0h1m1 0h9m1 0h1m1 0h3m1 0h1m3 0h8M9 46.5h4m3 0h2m1 0h1m3 0h3m3 0h5m3 0h2m1 0h4m1 0h1m3 0h1m3 0h1M1 47.5h7m2 0h1m1 0h1m2 0h4m2 0h2m2 0h1m1 0h1m1 0h2m1 0h2m1 0h3m1 0h1m1 0h1m3 0h1m1 0h1m1 0h1m1 0h2M1 48.5h1m5 0h1m2 0h2m2 0h1m3 0h3m3 0h2m3 0h2m2 0h1m1 0h2m1 0h4m1 0h1m1 0h1m3 0h1m2 0h1M1 49.5h1m1 0h3m1 0h1m1 0h1m5 0h1m1 0h1m1 0h2m4 0h5m3 0h2m2 0h1m2 0h1m4 0h5m1 0h2M1 50.5h1m1 0h3m1 0h1m1 0h2m1 0h4m1 0h1m3 0h1m2 0h1m1 0h2m5 0h1m3 0h2m2 0h4m3 0h1M1 51.5h1m1 0h3m1 0h1m1 0h2m2 0h4m1 0h2m4 0h1m2 0h2m6 0h1m1 0h3m1 0h1m6 0h4M1 52.5h1m5 0h1m3 0h1m7 0h3m2 0h1m5 0h1m1 0h1m1 0h1m1 0h2m3 0h2m1 0h1m3 0h1m1 0h1m1 0h1M1 53.5h7m3 0h3m5 0h1m2 0h4m6 0h1m1 0h1m2 0h2m3 0h1m3 0h2m1 0h1m1 0h1"/></svg>
